<mxfile host="app.diagrams.net" modified="2023-12-13T14:29:46.310Z" agent="Mozilla/5.0 (X11; Ubuntu; Linux x86_64; rv:109.0) Gecko/20100101 Firefox/119.0" version="22.1.8" etag="DBqptR4CWEW_t1L7gTAp" type="github">
  <diagram name="PÃ¡gina-1" id="6wnXz9-vZH99AChpzohx">
    <mxGraphModel>
      <root>
        <mxCell id="0" />
        <mxCell id="1" parent="0" />
      </root>
    </mxGraphModel>
  </diagram>
</mxfile>
